<svg width="201" height="201" viewBox="0 0 201 201" fill="none" xmlns="http://www.w3.org/2000/svg">
<g clip-path="url(#clip0_1806_32966)">
<path d="M76.5599 13.18L72.8999 3.72001L74.0399 3.46001L77.0399 11.46L77.1699 6.30001L78.3999 6.01001L80.7999 10.57L79.8999 2.12001L81.0298 1.85001L82.0298 11.94L80.5599 12.29L78.1199 7.73001L78.0199 12.83L76.5599 13.18Z" fill="white"/>
<path d="M84.4801 11.4L83.1201 1.45001L84.3601 1.28001L84.9601 5.60001L89.0801 5.03001L88.4901 0.710009L89.7201 0.540009L91.0901 10.54L89.8501 10.71L89.2401 6.22001L85.1101 6.79001L85.7301 11.28L84.4801 11.4Z" fill="white"/>
<path d="M92.2798 10.35L95.2798 0.179985L96.8298 0.109985L100.6 10.02L99.2798 10.07L98.2798 7.39999L94.3898 7.54999L93.5998 10.3L92.2798 10.35ZM94.6598 6.39999L97.8298 6.27999L96.0498 1.50998L94.6598 6.39999Z" fill="white"/>
<path d="M104.46 10.21L104.94 1.33L101.69 1.15L101.75 0L109.5 0.429999L109.44 1.57L106.19 1.4L105.7 10.28L104.46 10.21Z" fill="white"/>
<path d="M119.5 12.16L120.62 2.10999L121.74 2.38999L120.74 10.84L123.24 6.31998L124.46 6.62999V11.79L127.57 3.86999L128.7 4.14999L124.88 13.55L123.41 13.18V8.10999L120.97 12.58L119.5 12.16Z" fill="white"/>
<path d="M127.55 14.31L130.94 4.85999L136.87 6.97999L136.48 8.05999L131.73 6.35999L130.64 9.35999L134.64 10.81L134.25 11.89L130.25 10.44L129.12 13.65L134.05 15.42L133.67 16.5L127.55 14.31Z" fill="white"/>
<path d="M143.26 21.03L148.4 12.4L150.77 13.81C153.22 15.27 153.44 17.74 151.9 20.33C150.36 22.92 148.08 23.9 145.63 22.44L143.26 21.03ZM144.92 20.69L146.21 21.46C148.06 22.56 149.6 21.69 150.8 19.68C152 17.67 152.03 15.9 150.18 14.8L148.88 14.03L144.92 20.69Z" fill="white"/>
<path d="M153.31 21.27C155.2 18.7 157.48 17.99 159.31 19.36C161.14 20.73 161.18 23.12 159.31 25.69C157.44 28.26 155.14 28.97 153.31 27.6C151.48 26.23 151.42 23.84 153.31 21.27ZM158.31 24.93C159.84 22.85 159.97 21.24 158.67 20.29C157.37 19.34 155.89 19.93 154.35 22.03C152.81 24.13 152.69 25.72 153.98 26.67C155.27 27.62 156.77 27.02 158.3 24.93H158.31Z" fill="white"/>
<path d="M166.69 34.25L167.41 33.57L171.83 38.36L171.11 39.03L166.69 34.25Z" fill="white"/>
<path d="M175.25 50.45L183.07 44L183.68 45L177.08 50.37L182.02 48.87L182.68 49.94L179.12 53.64L186.86 50.11L187.47 51.11L178.19 55.2L177.39 53.92L180.94 50.26L176.07 51.77L175.25 50.45Z" fill="white"/>
<path d="M179.45 57.43L188.45 53L189 54.12L185.12 56.04L186.95 59.78L190.87 57.85L191.42 58.97L182.42 63.41L181.87 62.29L185.94 60.29L184.12 56.55L180.05 58.55L179.45 57.43Z" fill="white"/>
<path d="M182.9 64.48L193.49 64.09L194.03 65.54L185.82 72.24L185.36 71L187.58 69.2L186.2 65.56L183.35 65.67L182.9 64.48ZM187.39 65.48L188.51 68.48L192.51 65.28L187.39 65.48Z" fill="white"/>
<path d="M186.86 76.01L195.45 73.7L194.6 70.55L195.71 70.25L197.71 77.75L196.6 78.05L195.75 74.9L187.16 77.22L186.86 76.01Z" fill="white"/>
<path d="M189.7 90.89L199.62 88.82L199.7 89.97L191.36 91.65L196.43 92.65L196.52 93.91L191.63 95.53L200.12 96.02L200.2 97.18L190.09 96.48L189.98 94.97L194.82 93.38L189.82 92.46L189.7 90.89Z" fill="white"/>
<path d="M190.17 99.23L200.17 99.47L200.01 105.77H198.87L198.99 100.77L195.78 100.7L195.67 104.98H194.53L194.63 100.69L191.25 100.61L191.12 105.84H189.97L190.17 99.23Z" fill="white"/>
<path d="M188.74 116.26L198.55 118.42L197.96 121.11C197.35 123.9 195.07 124.89 192.13 124.24C189.19 123.59 187.53 121.75 188.13 118.96L188.74 116.26ZM189.59 117.73L189.27 119.2C188.8 121.31 190.12 122.49 192.4 122.99C194.68 123.49 196.4 122.99 196.84 120.87L197.16 119.39L189.59 117.73Z" fill="white"/>
<path d="M191.68 125.89C194.68 126.89 196.1 128.82 195.39 131.02C194.68 133.22 192.39 134.02 189.39 133.02C186.39 132.02 184.97 130.09 185.68 127.89C186.39 125.69 188.65 124.91 191.68 125.89ZM189.77 131.78C192.23 132.58 193.77 132.2 194.3 130.67C194.83 129.14 193.76 127.91 191.3 127.11C188.84 126.31 187.3 126.69 186.77 128.22C186.24 129.75 187.32 130.98 189.77 131.78Z" fill="white"/>
<path d="M183.57 142.65L184.43 143.13L181.27 148.83L180.4 148.34L183.57 142.65Z" fill="white"/>
<path d="M170.83 155.87L179.41 161.27L178.66 162.16L171.5 157.57L174.5 161.79L173.69 162.79L169.04 160.56L174.81 166.81L174.06 167.7L167.28 160.16L168.28 159.01L172.86 161.22L169.86 157.07L170.83 155.87Z" fill="white"/>
<path d="M165.51 162.04L172.51 169.2L171.62 170.08L168.62 166.97L165.62 169.88L168.67 172.99L167.78 173.87L160.78 166.7L161.67 165.83L164.85 169.06L167.85 166.15L164.67 162.91L165.51 162.04Z" fill="white"/>
<path d="M159.91 167.5L163.62 177.44L162.41 178.44L153.47 172.76L154.47 171.93L156.88 173.46L159.88 171.02L158.88 168.34L159.91 167.5ZM160.36 172.09L157.89 174.09L162.18 176.85L160.36 172.09Z" fill="white"/>
<path d="M150.19 174.91L155.1 182.34L157.82 180.54L158.45 181.54L151.97 185.82L151.34 184.82L154.06 183.03L149.15 175.6L150.19 174.91Z" fill="white"/>
<path d="M136.98 182.29L142.08 191.05L141 191.49L136.79 184.11L137.47 189.22L136.3 189.7L133.22 185.58L135.44 193.78L134.36 194.23L131.84 184.41L133.23 183.83L136.23 187.92L135.53 182.87L136.98 182.29Z" fill="white"/>
<path d="M129.24 185.35L132.15 194.97L126.15 196.8L125.82 195.7L130.65 194.23L129.72 191.15L125.61 192.4L125.28 191.3L129.39 190.06L128.39 186.82L123.39 188.34L123.06 187.24L129.24 185.35Z" fill="white"/>
<path d="M112.6 189.32L113.6 199.32L110.86 199.6C108.02 199.89 106.37 198.04 106.07 195.04C105.77 192.04 107 189.89 109.85 189.6L112.6 189.32ZM111.47 190.58L109.97 190.74C107.83 190.95 107.11 192.57 107.35 194.9C107.59 197.23 108.61 198.67 110.76 198.45L112.25 198.3L111.47 190.58Z" fill="white"/>
<path d="M104.44 195.11C104.44 198.29 103.1 200.24 100.79 200.27C98.4798 200.3 97.0298 198.41 96.9798 195.27C96.9298 192.13 98.3198 190.14 100.63 190.1C102.94 190.06 104.39 191.88 104.44 195.11ZM98.2598 195.21C98.2598 197.79 99.1699 199.15 100.77 199.13C102.37 199.11 103.2 197.73 103.16 195.13C103.12 192.53 102.25 191.18 100.65 191.21C99.0499 191.24 98.2198 192.59 98.2598 195.17V195.21Z" fill="white"/>
<path d="M85.9301 192.68L85.7501 193.68L79.3501 192.47L79.5301 191.47L85.9301 192.68Z" fill="white"/>
<path d="M69.3699 184.77L66.9199 194.6L65.8399 194.17L67.96 185.93L64.8799 190.08L63.71 189.61L64.3799 184.5L60.2499 191.93L59.1699 191.5L64.1699 182.7L65.5699 183.26L64.9 188.26L67.9 184.15L69.3699 184.77Z" fill="white"/>
<path d="M61.8599 181.67L57.2599 190.6L56.1499 190.02L58.1499 186.15L54.4499 184.24L52.4499 188.12L51.3398 187.54L55.9399 178.61L57.0499 179.19L54.9799 183.19L58.6699 185.1L60.7499 181.1L61.8599 181.67Z" fill="white"/>
<path d="M54.8998 178.05L46.6198 184.66L45.3198 183.82L47.9298 173.55L49.0398 174.27L48.3298 177.04L51.5898 179.15L53.8198 177.36L54.8998 178.05ZM50.6798 179.9L48.0098 178.18L46.7298 183.11L50.6798 179.9Z" fill="white"/>
<path d="M44.8301 171.11L39.3101 178.11L41.8701 180.11L41.1501 181.01L35.0601 176.2L35.7701 175.3L38.3301 177.3L43.85 170.3L44.8301 171.11Z" fill="white"/>
<path d="M33.6898 160.9L26.9798 168.49L26.2198 167.61L31.8998 161.28L27.2598 163.54L26.4298 162.54L29.4298 158.32L22.3298 163L21.5698 162.12L30.0998 156.64L31.0998 157.78L28.1698 161.95L32.7398 159.7L33.6898 160.9Z" fill="white"/>
<path d="M28.3203 154.48L20.1202 160.27L16.4902 155.12L17.4302 154.46L20.3402 158.59L22.9603 156.73L20.4902 153.23L21.4302 152.57L23.9003 156.07L26.6702 154.07L23.6702 149.79L24.6102 149.13L28.3203 154.48Z" fill="white"/>
<path d="M19.3202 139.94L10.1602 144.05L9.03017 141.53C7.86017 138.93 9.10018 136.78 11.8502 135.53C14.6002 134.28 17.0202 134.8 18.1902 137.4L19.3202 139.94ZM17.7602 139.27L17.1402 137.89C16.2602 135.89 14.5002 135.76 12.3702 136.72C10.2402 137.68 9.1902 139.11 10.1202 141.11L10.7302 142.48L17.7602 139.27Z" fill="white"/>
<path d="M11.2399 133.98C8.23994 134.98 5.93994 134.27 5.23994 132.08C4.53994 129.89 5.86997 127.93 8.88997 126.91C11.91 125.89 14.18 126.63 14.89 128.82C15.6 131.01 14.2499 132.97 11.2399 133.98ZM9.23994 128.12C6.79994 128.95 5.75994 130.19 6.23994 131.71C6.71994 133.23 8.31992 133.6 10.7799 132.77C13.2399 131.94 14.2599 130.71 13.7799 129.19C13.2999 127.67 11.71 127.3 9.25996 128.11L9.23994 128.12Z" fill="white"/>
<path d="M7.7702 115.69L6.7702 115.82L5.91016 109.37L6.91016 109.24L7.7702 115.69Z" fill="white"/>
<path d="M10.1202 97.48L0.0102539 98.26L0.120239 97.11L8.61023 96.52L3.70026 94.91L3.78021 93.65L8.84021 92.65L0.480225 91.07L0.550232 89.91L10.5502 91.91L10.4603 93.42L5.46027 94.42L10.3203 95.99L10.1202 97.48Z" fill="white"/>
<path d="M10.69 89.38L0.77002 87.83L0.960022 86.6L5.27002 87.27L5.90997 83.16L1.59998 82.49L1.78998 81.25L11.72 82.8L11.53 84.04L7.04999 83.34L6.40002 87.45L10.88 88.15L10.69 89.38Z" fill="white"/>
<path d="M11.9301 81.6L3.04004 75.82L3.43005 74.32L14.0001 73.57L13.67 74.84L10.8201 75.04L9.82007 78.81L12.22 80.36L11.9301 81.6ZM8.84003 78.18L9.63007 75.11L4.55005 75.44L8.84003 78.18Z" fill="white"/>
<path d="M15.3102 69.9L6.95026 66.9L5.83026 69.96L4.76025 69.57L7.41022 62.27L8.49023 62.66L7.38025 65.73L15.7402 68.73L15.3102 69.9Z" fill="white"/>
<path d="M21.5502 56.11L12.2402 52.11L12.8402 51.11L20.6202 54.54L17.0302 50.83L17.6802 49.75L22.6202 51.24L15.9503 45.95L16.5502 44.95L24.4202 51.34L23.6503 52.63L18.7802 51.11L22.3402 54.76L21.5502 56.11Z" fill="white"/>
<path d="M25.9599 49.01L17.8999 43.01L21.6599 38.01L22.5799 38.69L19.5799 42.75L22.1199 44.61L24.6799 41.17L25.6099 41.85L23.1199 45.3L25.8398 47.3L28.9599 43.09L29.8799 43.78L25.9599 49.01Z" fill="white"/>
<path d="M36.95 35.92L30.1699 28.51L32.1699 26.65C34.2799 24.72 36.6999 25.22 38.7399 27.44C40.7799 29.66 41.1199 32.11 38.9799 34.11L36.95 35.92ZM37.0999 34.23L38.21 33.23C39.8 31.78 39.41 30.05 37.83 28.33C36.25 26.61 34.5599 26.06 32.9799 27.51L31.8599 28.51L37.0999 34.23Z" fill="white"/>
<path d="M40.1202 26.36C38.2102 23.81 38.1902 21.42 40.0402 20.03C41.8902 18.64 44.1802 19.33 46.0402 21.88C47.9002 24.43 47.9702 26.81 46.1302 28.2C44.2902 29.59 42.0002 28.91 40.1202 26.36ZM45.0702 22.64C43.5202 20.58 42.0102 19.98 40.7302 20.95C39.4502 21.92 39.5802 23.51 41.1402 25.59C42.7002 27.67 44.2002 28.25 45.4902 27.28C46.7802 26.31 46.5802 24.71 45.0302 22.64H45.0702Z" fill="white"/>
<path d="M56.3401 17.31L55.9102 16.42L61.7702 13.57L62.2002 14.46L56.3401 17.31Z" fill="white"/>
</g>
<defs>
<clipPath id="clip0_1806_32966">
<rect width="200.21" height="200.23" fill="white"/>
</clipPath>
</defs>
</svg>
